<svg id="Layer_1" data-name="Layer 1" xmlns="http://www.w3.org/2000/svg" xmlns:xlink="http://www.w3.org/1999/xlink" viewBox="0 0 407.92 71"><defs><style>.cls-1{fill:url(#linear-gradient);}.cls-2{font-size:35.61px;fill:#fff;font-family:Diamante;letter-spacing:-0.05em;}.cls-3{letter-spacing:-0.07em;}.cls-4{letter-spacing:-0.05em;}</style><linearGradient id="linear-gradient" x1="203.96" y1="71" x2="203.96" gradientUnits="userSpaceOnUse"><stop offset="0" stop-color="#9c8156"/><stop offset="0.09" stop-color="#bc9f77"/><stop offset="0.32" stop-color="#89a3b1"/><stop offset="0.52" stop-color="#507282"/><stop offset="1" stop-color="#1e4554"/></linearGradient></defs><polyline class="cls-1" points="407.92 55.69 406.98 55.69 406.57 55.69 406.57 55.69 406.57 50.17 406.57 46.91 405.57 46.91 405.57 50.17 405.57 55.69 405.57 55.69 405.57 51.09 404.57 51.09 404.57 53.89 404.57 55.69 404.57 55.69 404.57 54.26 404.57 51.83 404.57 50.17 403.57 50.17 403.57 51.83 403.57 54.26 403.57 54.26 403.57 52.01 403.57 46.91 402.57 46.91 402.57 52.01 402.57 54.56 402.57 54.56 402.57 51.09 402.57 46.91 401.57 46.91 401.57 51.09 401.57 54.63 401.57 54.63 401.57 51.09 401.57 46.91 400.57 46.91 400.57 51.09 400.57 54.26 400.57 54.26 400.57 51.09 400.57 50.17 399.57 50.17 399.57 51.09 399.57 54.26 399.57 54.26 399.57 52.01 399.57 50.17 399.57 48.01 398.57 48.01 398.57 50.17 398.57 52.01 398.57 54.26 398.57 54.26 398.57 52.01 398.57 50.17 397.57 50.17 397.57 52.01 397.57 54.63 397.57 54.63 397.57 52.01 397.57 50.17 396.57 50.17 396.57 52.01 396.57 52.01 396.57 54.63 396.57 54.63 396.57 52.01 396.57 50.17 395.57 50.17 395.57 52.01 395.57 54.63 395.57 54.63 395.57 52.01 395.57 46.91 394.57 46.91 394.57 52.01 394.57 54.63 394.57 54.63 394.57 51.09 394.57 46.91 393.57 46.91 393.57 51.09 393.57 54.63 393.57 54.63 393.57 51.09 393.57 46.91 392.57 46.91 392.57 51.09 392.57 54.63 392.57 54.63 392.57 51.09 392.57 45.53 391.57 45.53 391.57 51.09 391.57 54.26 391.57 54.26 391.57 50.17 391.57 46.91 390.57 46.91 390.57 50.17 390.57 54.26 390.57 54.26 390.57 51.09 390.57 44.15 389.58 44.15 389.58 51.09 389.57 51.09 389.57 54.26 389.57 54.26 389.57 47.37 389.57 45.53 388.57 45.53 388.57 53.89 388.57 53.89 388.57 50.17 388.57 45.53 387.57 45.53 387.57 50.17 387.57 54.26 387.57 54.26 387.57 50.17 387.57 44.15 386.57 44.15 386.57 50.17 386.57 50.17 386.57 53.51 386.57 53.51 386.57 47.37 386.57 45.53 385.57 45.53 385.57 47.37 385.57 53.89 385.57 53.89 385.57 50.17 385.57 44.15 384.57 44.15 384.57 50.17 384.57 53.89 384.57 53.89 384.57 47.37 384.57 42.77 383.57 42.77 383.57 47.37 383.57 53.89 383.57 53.89 383.57 46.45 383.57 44.15 382.57 44.15 382.57 46.45 382.57 53.51 382.57 53.51 382.57 47.37 382.57 42.77 381.58 42.77 381.58 47.37 381.57 47.37 381.57 53.89 381.57 53.89 381.57 46.45 381.57 42.77 380.57 42.77 380.57 53.51 380.57 53.51 380.57 46.45 380.57 42.77 379.57 42.77 379.57 46.45 379.57 53.14 379.57 53.14 379.57 46.45 379.57 41.39 378.57 41.39 378.57 46.45 378.57 53.51 378.57 53.51 378.57 45.53 378.57 41.39 377.57 41.39 377.57 45.53 377.57 53.14 377.57 53.14 377.57 45.53 377.57 40.01 376.57 40.01 376.57 45.53 376.57 53.14 376.57 53.14 376.57 44.61 376.57 40.01 375.57 40.01 375.57 44.61 375.57 53.14 375.57 53.14 375.57 44.61 375.57 40.01 374.57 40.01 374.57 44.61 374.57 53.14 374.57 53.14 374.57 44.61 374.57 40.01 373.58 40.01 373.58 44.61 373.57 44.61 373.57 52.77 373.57 52.77 373.57 44.61 373.57 38.63 372.57 38.63 372.57 52.77 372.57 52.77 372.57 43.69 372.57 38.63 371.57 38.63 371.57 43.69 371.57 52.4 371.57 52.4 371.57 43.69 371.57 37.25 370.57 37.25 370.57 43.69 370.57 52.4 370.57 52.4 370.57 42.77 370.57 37.25 369.57 37.25 369.57 42.77 369.57 52.4 369.57 52.4 369.57 42.77 369.57 38.63 368.57 38.63 368.57 42.77 368.57 52.4 368.57 52.4 368.57 43.69 368.57 40.01 367.57 40.01 367.57 43.69 367.57 52.02 367.57 52.02 367.57 44.61 367.57 40.01 366.57 40.01 366.57 44.61 366.57 52.02 366.57 52.02 366.57 44.61 366.57 40.01 365.57 40.01 365.57 44.61 365.57 52.02 365.57 52.02 365.57 44.61 365.57 41.39 364.57 41.39 364.57 40.93 363.57 40.93 363.57 41.39 362.57 41.39 361.57 41.39 360.57 41.39 360.57 40.01 359.58 40.01 359.58 45.53 359.57 45.53 359.57 44.61 359.57 40.01 358.57 40.01 358.57 38.63 357.57 38.63 356.57 38.63 356.57 37.25 355.57 37.25 354.57 37.25 354.57 38.63 353.57 38.63 353.57 42.77 353.57 43.69 353.57 43.69 353.57 37.25 352.57 37.25 352.57 35.87 351.57 35.87 350.57 35.87 350.57 34.49 349.57 34.49 349.57 33.11 348.57 33.11 347.57 33.11 347.57 34.49 346.57 34.49 346.57 33.11 345.58 33.11 345.58 40.93 345.57 40.93 345.57 40.01 345.57 34.49 344.57 34.49 343.57 34.49 342.57 34.49 342.57 35.87 341.57 35.87 341.57 34.49 340.57 34.49 340.57 33.11 339.57 33.11 338.57 33.11 338.57 31.73 337.57 31.73 336.57 31.73 336.57 30.35 335.57 30.35 335.57 31.73 334.58 31.73 334.58 38.17 334.57 38.17 334.57 31.73 333.58 31.73 333.57 31.73 332.58 31.73 332.58 39.09 332.58 39.09 332.58 31.73 331.58 31.73 331.58 30.35 330.58 30.35 329.58 30.35 329.58 31.73 328.58 31.73 328.58 38.17 328.58 39.09 328.57 39.09 328.57 34.49 327.57 34.49 327.57 35.87 326.57 35.87 325.57 35.87 324.57 35.87 324.57 37.25 323.57 37.25 323.57 35.87 322.57 35.87 322.57 42.77 322.57 42.77 322.57 41.85 322.57 34.49 321.57 34.49 321.57 35.11 320.57 35.11 320.57 35.87 319.57 35.87 319.57 34.49 318.57 34.49 318.57 40.93 318.57 40.93 318.57 34.49 317.57 34.49 317.57 33.11 316.57 33.11 316.57 40.01 316.57 40.01 316.57 33.11 315.57 33.11 315.57 40.01 315.57 40.01 315.57 34.49 314.57 34.49 314.57 40.93 314.57 40.93 314.57 35.87 313.57 35.87 313.57 35.87 312.57 35.87 311.57 35.87 311.57 41.85 311.57 41.85 311.57 34.49 310.57 34.49 310.57 34.49 309.57 34.49 309.57 33.11 308.57 33.11 308.57 40.01 308.57 40.01 308.57 33.11 307.57 33.11 307.57 31.73 306.57 31.73 306.57 39.09 306.57 39.09 306.57 30.35 305.58 30.35 305.58 39.09 305.57 39.09 305.57 50.9 305.57 50.9 305.57 38.17 305.57 30.35 304.57 30.35 304.57 31.73 303.57 31.73 303.57 33.11 302.57 33.11 302.57 39.09 302.57 39.09 302.57 33.11 301.58 33.11 301.58 40.01 301.57 40.01 301.57 51.28 301.57 51.28 301.57 31.73 300.57 31.73 300.57 39.09 300.57 39.09 300.57 31.73 299.58 31.73 299.58 39.09 299.57 39.09 299.57 30.35 298.57 30.35 298.57 30.35 297.58 30.35 297.58 38.17 297.57 38.17 297.57 38.17 297.57 38.17 297.57 28.97 296.57 28.97 296.57 37.25 296.57 37.25 296.57 31.13 295.57 31.13 295.57 37.25 295.57 37.25 295.57 30.35 294.58 30.35 294.58 28.7 293.58 28.7 293.58 37.06 293.57 37.06 293.57 27.59 292.57 27.59 292.57 26.21 291.57 26.21 290.57 26.21 289.57 26.21 289.57 25.79 288.57 25.79 288.57 24.62 287.57 24.62 287.57 23.45 286.57 23.45 286.57 22.07 285.58 22.07 285.58 33.57 285.57 33.57 285.57 32.65 285.57 17.93 284.57 17.93 284.57 18.42 283.57 18.42 283.57 19.31 282.57 19.31 281.57 19.31 281.57 17.93 280.57 17.93 280.57 19.31 279.57 19.31 279.57 17.93 278.57 17.93 278.57 16.55 277.57 16.55 277.57 17.93 276.57 17.93 276.57 16.55 275.58 16.55 275.58 15.18 274.58 15.18 274.58 28.05 274.57 28.05 274.57 13.8 273.58 13.8 273.58 12.42 272.58 12.42 272.58 22.14 272.58 22.14 272.58 11.04 271.58 11.04 271.58 13.8 270.58 13.8 270.58 12.42 269.58 12.42 269.58 13.8 268.58 13.8 268.58 26.21 268.58 27.13 268.57 27.13 268.57 11.04 267.57 11.04 267.57 13.8 266.57 13.8 266.57 12.42 265.57 12.42 265.57 8.28 264.57 8.28 264.57 11.04 263.57 11.04 263.57 12.42 262.57 12.42 262.57 11.04 261.57 11.04 261.57 12.42 260.57 12.42 260.57 11.04 259.57 11.04 259.57 12.42 258.57 12.42 258.57 13.8 257.57 13.8 257.57 12.42 256.57 12.42 256.57 13.8 255.57 13.8 255.57 16.55 254.57 16.55 254.57 17.93 253.57 17.93 253.57 13.8 252.57 13.8 251.57 13.8 251.57 15.18 250.57 15.18 250.57 13.8 249.57 13.8 249.57 12.42 248.57 12.42 248.57 13.8 247.57 13.8 246.57 13.8 246.57 15.18 245.58 15.18 245.58 27.13 245.57 27.13 245.57 28.05 245.57 28.05 245.57 13.8 244.57 13.8 244.57 27.13 244.57 27.13 244.57 15.18 243.57 15.18 243.57 16.55 242.58 16.55 242.58 13.8 241.58 13.8 241.58 27.13 241.57 27.13 241.57 12.42 240.57 12.42 240.57 15.18 239.58 15.18 239.58 26.21 239.57 26.21 239.57 12.42 238.58 12.42 238.57 12.42 237.58 12.42 237.58 13.8 236.57 13.8 236.57 27.13 236.57 27.13 236.57 13.8 235.57 13.8 235.57 27.13 235.57 27.13 235.57 16.55 234.57 16.55 234.57 17.93 233.58 17.93 233.58 28.97 233.57 28.97 233.57 29.89 233.57 29.89 233.57 17.93 232.57 17.93 232.57 19.31 231.58 19.31 231.58 29.89 231.57 29.89 231.57 30.81 231.57 30.81 231.57 20.69 230.58 20.69 230.58 43.75 230.57 43.75 230.57 20.69 229.57 20.69 229.57 22.14 229.57 22.14 229.57 31.73 229.57 31.73 229.57 22.07 228.57 22.07 228.57 23.45 227.58 23.45 227.58 32.65 227.57 32.65 227.57 33.57 227.57 33.57 227.57 20.69 226.57 20.69 226.57 43.37 226.57 43.37 226.57 19.31 225.57 19.31 225.57 19.31 224.57 19.31 224.57 30.81 224.57 30.81 224.57 17.93 223.57 17.93 223.57 29.89 223.57 29.89 223.57 16.55 222.57 16.55 222.57 29.89 222.57 29.89 222.57 44.12 222.57 44.12 222.57 28.97 222.57 13.8 221.57 13.8 221.57 12.42 220.57 12.42 220.57 8.28 219.57 8.28 219.57 23.45 219.57 23.45 219.57 6.9 218.57 6.9 217.57 6.9 217.57 22.53 217.57 22.53 217.57 6.9 216.57 6.9 216.57 5.52 215.57 5.52 214.57 5.52 214.57 4.14 213.57 4.14 213.57 20.69 213.57 20.69 213.57 4.14 212.57 4.14 212.57 20.69 212.57 20.69 212.57 5.52 211.57 5.52 211.57 21.61 211.57 21.61 211.57 2.76 210.57 2.76 210.57 21.61 210.57 21.61 210.57 44.49 210.57 44.49 210.57 19.77 210.57 0 209.57 0 209.57 1.38 208.57 1.38 208.57 2.76 207.57 2.76 207.57 4.14 207.14 4.14 207.14 1.31 206.57 1.31 206.57 2.69 205.57 2.69 205.57 1.31 204.57 1.31 204.57 2.69 203.57 2.69 203.57 4.07 202.57 4.07 202.57 5.28 201.57 5.28 201.57 2.69 200.57 2.68 200.57 3.69 199.57 3.69 199.57 5.45 198.57 5.45 198.57 8.21 197.57 8.21 197.57 5.45 196.57 5.45 196.57 4.07 195.57 4.07 195.57 19.7 195.57 19.7 195.57 4.07 194.57 4.07 194.57 5.45 193.57 5.45 193.57 6.83 192.57 6.83 192.57 5.45 191.57 5.45 191.57 4.07 190.57 4.07 189.57 4.07 188.57 4.07 187.57 4.07 187.57 5.45 186.57 5.45 186.57 6.83 185.57 6.83 185.57 20.62 185.57 21.54 185.57 21.54 185.57 8.25 184.57 8.25 184.57 10.96 183.57 10.96 183.57 9.58 182.57 9.58 182.57 13.72 181.57 13.72 181.57 15.1 180.57 15.1 180.57 15.59 179.57 15.59 179.57 13.72 178.57 13.72 178.57 26.14 178.57 26.14 178.57 12.34 177.57 12.34 177.57 10.96 176.57 10.96 175.57 10.96 175.57 12.34 174.57 12.34 174.57 13.72 173.57 13.72 173.57 15.1 172.57 15.1 172.57 13.72 171.57 13.72 171.57 12.34 170.57 12.34 170.57 13.72 169.57 13.72 168.57 13.72 168.57 15.1 167.57 15.1 167.57 16.48 166.57 16.48 166.57 17.86 165.57 17.86 165.57 19.24 164.57 19.24 163.57 19.24 163.57 20.62 162.57 20.62 162.57 19.24 161.57 19.24 160.57 19.24 159.57 19.24 158.57 19.24 158.57 17.86 157.57 17.86 156.57 17.86 156.57 15.59 155.57 15.59 155.57 16.48 154.57 16.48 154.57 17.86 153.57 17.86 153.57 16.48 152.57 16.48 152.57 15.1 151.57 15.1 150.57 15.1 150.57 13.72 149.57 13.72 149.57 15.1 148.57 15.1 147.57 15.1 146.57 15.1 145.57 15.1 145.57 17.86 144.57 17.86 144.57 16.48 143.57 16.48 143.57 15.1 142.57 15.1 141.57 15.1 141.57 16.48 140.57 16.48 140.57 15.1 139.57 15.1 139.57 17.45 138.57 17.45 138.57 16.48 137.57 16.48 137.57 15.59 136.57 15.59 136.57 15.1 135.57 15.1 135.57 13.72 134.57 13.72 134.57 15.1 133.57 15.1 133.57 16.48 132.57 16.48 132.57 17.86 131.57 17.86 131.57 19.44 130.57 19.44 130.57 20.75 129.57 20.75 129.57 22 128.57 22 128.57 23.38 127.57 23.38 126.57 23.38 126.57 24.76 125.57 24.76 125.57 26.14 124.57 26.14 123.57 26.14 122.57 26.14 122.57 24.76 121.57 24.76 120.57 24.76 119.57 24.76 118.57 24.76 118.57 23.38 117.57 23.38 116.57 23.38 116.57 24.76 115.57 24.76 114.57 24.76 114.57 26.14 113.57 26.14 112.57 26.14 112.57 27.52 111.57 27.52 110.57 27.52 109.57 27.52 109.57 28.9 108.57 28.9 108.57 27.52 107.57 27.52 106.57 27.52 105.57 27.52 105.57 22.36 104.57 22.36 103.57 22.36 102.57 22.36 101.57 22.36 101.57 20.98 100.57 20.98 99.57 20.98 99.57 19.6 98.57 19.6 98.57 18.23 97.57 18.23 96.57 18.23 96.57 19.6 95.57 19.6 94.57 19.6 93.57 19.6 93.58 22.44 91.57 22.44 91.57 21.06 90.57 21.06 89.57 21.06 89.57 19.68 88.57 19.68 87.57 19.68 86.57 19.68 86.57 18.3 85.57 18.3 84.57 18.3 83.57 18.3 83.57 19.68 82.57 19.68 82.57 21.06 81.57 21.06 81.57 19.68 80.57 19.68 80.57 21.06 79.57 21.06 79.57 22.44 78.57 22.44 78.57 21.06 77.57 21.06 77.57 22.44 76.57 22.44 75.57 22.44 74.57 22.44 73.57 22.44 72.57 22.44 71.57 22.44 70.57 22.44 70.57 23.82 69.57 23.82 69.57 22.44 68.57 22.44 67.57 22.44 66.57 22.44 65.57 22.44 65.57 23.82 64.57 23.82 63.57 23.82 63.57 24.94 63.29 24.94 63.29 23.6 62.64 23.6 62 23.6 61.36 23.6 60.71 23.6 60.71 24.94 60.07 24.94 60.07 26.29 59.42 26.29 59.42 27.64 58.78 27.64 58.78 26.29 58.14 26.29 57.49 26.29 56.85 26.29 56.85 27.64 56.21 27.64 55.56 27.64 55.56 28.98 54.92 28.98 54.92 30.33 54.28 30.33 54.28 31.68 53.63 31.68 52.99 31.68 52.35 31.68 51.7 31.68 51.06 31.68 50.41 31.68 49.77 31.68 49.13 31.68 48.48 31.68 48.48 33.02 47.84 33.02 47.2 33.02 46.55 33.02 46.55 34.37 45.91 34.37 45.27 34.37 44.62 34.37 43.98 34.37 43.34 34.37 42.69 34.37 42.69 35.72 42.05 35.72 42.05 37.06 41.41 37.06 41.41 38.41 40.76 38.41 40.12 38.41 40.12 37.06 39.47 37.06 38.83 37.06 38.83 38.41 38.19 38.41 37.54 38.41 37.54 39.75 36.9 39.75 36.26 39.75 36.26 41.1 35.61 41.1 34.97 41.1 34.97 42.45 34.33 42.45 33.68 42.45 33.68 43.79 33.04 43.79 32.4 43.79 32.4 42.45 31.75 42.45 31.11 42.45 31.11 41.1 30.46 41.1 29.82 41.1 29.82 39.75 29.18 39.75 28.53 39.75 28.53 41.1 27.89 41.1 27.89 42.45 27.25 42.45 26.6 42.45 26.6 43.79 25.96 43.79 25.96 42.45 25.32 42.45 25.32 43.79 24.67 43.79 24.67 42.45 24.03 42.45 24.03 43.79 23.39 43.79 23.39 47.03 22.74 47.03 22.74 43.79 22.1 43.79 22.1 47.03 21.45 47.03 21.45 43.79 20.57 43.79 20.57 47.57 19.52 47.57 19.52 46 18.57 46 18.57 47.57 16.95 47.57 16.31 47.57 16.31 49.93 15.66 49.93 14.94 49.93 14.22 49.93 14.22 50.8 13.73 50.8 13.09 50.8 12.45 50.8 12.45 52.15 11.8 52.15 11.16 52.15 10.51 52.15 9.87 52.15 9.23 52.15 8.58 52.15 8.58 52.94 7.94 52.94 7.94 51.95 7.3 51.95 7.3 52.15 6.65 52.15 6.01 52.15 5.37 52.15 5.37 53.33 4.88 53.33 4.88 53.5 4.72 53.5 4.08 53.5 3.44 53.5 2.79 53.5 2.15 53.5 2.15 54.05 2.01 54.05 1.5 54.05 1.5 52.15 0.86 52.15 0.86 53.5 0.22 53.5 0.22 53.5 0.22 54.39 0.57 54.39 0.57 55.24 0.22 55.24 0.22 56.19 0.57 56.19 0.57 56.21 0 56.21 2.39 56.21 1.79 56.21 1.18 56.21 0.57 56.21 0.57 60.56 1.18 60.56 1.18 60.85 1.79 60.85 1.79 60.5 2.39 60.5 2.39 60.56 0 60.56 0.61 60.56 1.21 60.56 1.82 60.56 2.43 60.56 2.43 60.85 3.03 60.85 3.64 60.85 4.25 60.85 4.85 60.85 4.85 61.35 5.46 61.35 5.46 60.85 6.07 60.85 6.67 60.85 7.28 60.85 7.89 60.85 8.49 60.85 9.1 60.85 9.1 61.14 9.71 61.14 10.31 61.14 10.92 61.14 11.53 61.14 12.13 61.14 12.74 61.14 12.74 61.43 13.35 61.43 13.95 61.43 14.56 61.43 15.17 61.43 15.77 61.43 16.38 61.43 16.99 61.43 17.59 61.43 17.59 61.14 18.2 61.14 18.2 61.43 18.81 61.43 18.81 61.14 19.41 61.14 19.41 61.43 20.02 61.43 20.02 61.72 20.63 61.72 20.63 61.43 21.23 61.43 21.23 61.72 21.84 61.72 21.84 61.43 22.45 61.43 22.45 61.72 23.05 61.72 23.66 61.72 23.66 62.01 24.27 62.01 24.27 62.3 24.87 62.3 25.48 62.3 25.48 62.01 26.09 62.01 26.69 62.01 26.69 61.72 27.3 61.72 27.91 61.72 27.91 61.43 28.51 61.43 29.12 61.43 29.12 61.72 29.73 61.72 30.33 61.72 30.33 62.01 30.94 62.01 31.55 62.01 31.55 62.3 32.15 62.3 32.76 62.3 32.76 62.59 33.37 62.59 33.97 62.59 33.97 62.87 34.58 62.87 35.19 62.87 35.19 62.59 35.79 62.59 36.4 62.59 36.4 62.87 37.01 62.87 37.01 63.16 37.61 63.16 37.61 63.45 38.22 63.45 38.83 63.45 39.43 63.45 40.04 63.45 40.65 63.45 41.25 63.45 41.25 63.74 41.86 63.74 42.46 63.74 43.07 63.74 43.07 64.03 43.68 64.03 44.28 64.03 44.89 64.03 45.5 64.03 46.1 64.03 46.71 64.03 47.32 64.03 47.92 64.03 48.53 64.03 48.53 64.32 49.14 64.32 49.14 64.61 49.74 64.61 49.74 64.89 50.35 64.89 50.96 64.89 50.96 65.18 51.56 65.18 52.11 65.18 52.17 65.18 52.17 64.89 52.71 64.89 52.71 65.18 53.32 65.18 53.93 65.18 53.93 65.47 54.22 65.47 54.53 65.47 54.53 65.76 55.14 65.76 55.75 65.76 56.35 65.76 56.35 65.47 56.96 65.47 56.96 65.09 57.26 65.09 58.21 65.09 59.15 65.09 59.15 65.38 60.09 65.38 61.03 65.38 61.98 65.38 62.92 65.38 62.92 65.09 63.86 65.09 63.86 65.38 64.81 65.38 65.75 65.38 66.69 65.38 67.63 65.38 68.58 65.38 69.52 65.38 70.46 65.38 70.46 65.68 71.4 65.68 71.4 65.38 72.35 65.38 72.35 65.68 73.29 65.68 73.29 65.97 74.23 65.97 74.23 65.68 75.17 65.68 75.17 65.97 76.12 65.97 76.12 66.27 77.06 66.27 78 66.27 78.94 66.27 78.94 65.97 79.89 65.97 80.83 65.97 81.77 65.97 81.77 65.68 82.72 65.68 83.66 65.68 83.66 65.38 84.6 65.38 85.54 65.38 86.48 65.38 87.43 65.38 88.37 65.38 88.37 65.68 89.31 65.68 90.26 65.68 90.26 65.38 91.2 65.38 91.2 65.09 92.14 65.09 93.08 65.09 93.08 64.79 94.03 64.79 94.97 64.79 95.91 64.79 95.91 64.49 96.85 64.49 97.8 64.49 98.74 64.49 99.68 64.49 99.68 64.2 100.63 64.2 100.63 64.49 101.57 64.49 102.51 64.49 103.45 64.49 103.45 64.79 104.39 64.79 105.34 64.79 105.34 65.09 106.28 65.09 107.22 65.09 107.22 65.38 108.17 65.38 109.11 65.38 109.11 65.09 110.05 65.09 110.99 65.09 111.94 65.09 112.88 65.09 112.88 64.79 113.82 64.79 114.76 64.79 115.71 64.79 115.71 65.09 116.65 65.09 116.65 65.38 117.59 65.38 118.53 65.38 118.53 65.68 119.48 65.68 119.48 65.94 120.42 65.94 120.42 66.23 121.36 66.23 121.36 66.56 122.31 66.56 122.31 66.86 123.25 66.86 123.25 67.16 124.19 67.16 124.19 67.45 125.13 67.45 125.13 67.16 126.08 67.16 126.08 67.05 127.02 67.05 127.02 66.86 127.96 66.86 127.96 66.65 128.9 66.65 128.9 67.16 129.85 67.16 129.85 66.86 130.79 66.86 130.79 67.16 131.73 67.16 132.67 67.16 132.67 66.86 133.62 66.86 133.62 66.56 134.56 66.56 134.56 67.16 135.5 67.16 136.44 67.16 137.39 67.16 137.39 67.16 138.33 67.16 138.33 67.45 139.27 67.45 139.27 67.16 140.22 67.16 141.16 67.16 141.16 66.86 142.1 66.86 142.1 66.56 143.04 66.56 143.04 66.86 143.99 66.86 143.99 67.05 144.93 67.05 144.93 66.56 145.87 66.56 146.81 66.56 146.81 66.27 147.75 66.27 148.7 66.27 149.64 66.27 150.58 66.27 150.58 65.97 151.53 65.97 151.53 66.27 152.47 66.27 153.41 66.27 153.41 66.56 154.35 66.56 154.35 66.86 155.3 66.86 155.3 67.16 156.24 67.16 156.24 67.45 157.18 67.45 158.12 67.45 158.12 67.75 159.07 67.75 159.07 67.45 160.01 67.45 160.01 67.16 160.95 67.16 160.95 67.45 161.9 67.45 161.9 67.75 162.84 67.75 162.84 68.04 163.78 68.04 164.72 68.04 164.72 67.75 165.66 67.75 165.66 56.12 165.66 56.12 165.66 67.45 166.61 67.45 166.61 67.05 167.55 67.05 167.55 67.16 168.49 67.16 168.49 67.45 169.43 67.45 169.43 68.34 170.38 68.34 170.38 68.04 171.32 68.04 171.32 68.63 172.26 68.63 172.26 56.12 172.26 56.12 172.26 68.93 173.21 68.93 173.21 69.23 174.15 69.23 174.15 69.52 175.09 69.52 176.03 69.52 176.98 69.52 177.92 69.52 177.92 69.23 178.86 69.23 178.86 68.93 179.8 68.93 179.8 69.23 180.75 69.23 180.75 69.52 181.69 69.52 181.69 56.12 181.69 56.12 181.69 69.52 182.63 69.52 182.63 69.23 183.57 69.23 183.57 68.63 184.52 68.63 184.52 69.23 185.46 69.23 185.46 69.82 186.4 69.82 187.34 69.82 187.34 69.26 188.29 69.26 188.29 69.52 189.23 69.52 189.23 69.82 190.17 69.82 190.17 70.11 191.12 70.11 191.12 69.82 192.06 69.82 192.06 70.11 193 70.11 193 70.41 193.94 70.41 193.94 70.7 194.89 70.7 194.89 71 195.83 71 195.83 56.12 195.83 56.12 195.83 70.41 196.77 70.41 196.77 56.12 196.77 56.12 196.77 69.82 197.72 69.82 197.72 56.12 197.72 56.12 197.72 70.11 198.66 70.11 198.66 56.12 198.66 56.12 198.66 70.11 199.6 70.11 199.6 69.82 200.54 69.82 201.49 69.82 201.49 69.52 202.43 69.52 202.43 56.12 202.43 56.12 202.43 69.52 203.37 69.52 204.31 69.52 204.31 56.12 204.31 56.12 204.31 69.23 205.26 69.23 205.26 68.34 206.2 68.34 206.2 68.04 207.14 68.04 207.14 56.12 207.14 56.12 207.14 67.45 208.08 67.45 208.08 56.12 208.08 56.12 208.08 67.16 209.03 67.16 209.03 56.12 209.03 56.12 209.03 66.86 209.97 66.86 209.97 66.86 210.91 66.86 210.91 56.12 210.91 56.12 210.91 66.56 211.85 66.56 211.85 56.12 211.86 56.12 211.86 65.97 212.79 65.97 212.79 66.27 213.74 66.27 213.74 56.12 213.74 56.12 213.74 66.25 213.74 66.25 213.74 66.56 214.68 66.56 214.68 56.12 214.68 56.12 214.68 66.56 215.62 66.56 215.62 56.12 215.63 56.12 215.63 66.86 216.57 66.86 216.57 67.16 217.51 67.16 217.51 56.12 217.51 56.12 217.51 67.16 218.45 67.16 218.45 67.45 219.39 67.45 219.39 56.12 219.4 56.12 219.4 68.04 220.34 68.04 220.34 56.12 220.34 56.12 220.34 68.04 221.28 68.04 221.28 68.34 222.22 68.34 222.22 68.34 223.16 68.34 223.16 56.12 223.17 56.12 223.17 67.75 224.11 67.75 224.11 68.34 225.05 68.34 225.05 56.12 225.05 56.12 225.05 68.04 226 68.04 226 67.45 226.93 67.45 226.93 67.75 227.88 67.75 227.88 56.12 227.88 56.12 227.88 68.04 228.82 68.04 228.82 56.12 228.82 56.12 228.82 67.75 229.76 67.75 229.76 68.04 230.71 68.04 231.65 68.04 231.65 68.34 232.59 68.34 232.59 68.04 233.53 68.04 233.53 67.75 234.48 67.75 234.48 68.04 235.42 68.04 236.36 68.04 236.36 67.16 237.3 67.16 237.3 67.45 238.25 67.45 238.25 68.04 239.19 68.04 239.19 68.34 240.13 68.34 240.13 68.04 241.07 68.04 241.07 68.34 242.02 68.34 242.02 68.63 242.96 68.63 242.96 68.34 243.9 68.34 243.9 68.63 244.84 68.63 244.84 68.34 245.79 68.34 245.79 68.63 246.73 68.63 246.73 69.23 247.67 69.23 247.67 68.34 248.62 68.34 248.62 68.04 249.56 68.04 249.56 68.63 250.5 68.63 250.5 56.12 250.5 56.12 250.5 68.04 251.45 68.04 251.45 68.34 252.39 68.34 252.39 68.04 253.33 68.04 253.33 68.63 254.27 68.63 254.27 66.25 254.27 66.25 254.27 68.34 255.22 68.34 255.22 68.04 256.16 68.04 256.16 56.12 256.16 56.12 256.16 67.75 257.1 67.75 257.1 67.45 258.04 67.45 258.04 67.16 258.98 67.16 258.98 67.45 259.93 67.45 259.93 67.16 260.87 67.16 260.87 66.86 261.81 66.86 261.81 67.16 262.75 67.16 262.75 66.86 263.7 66.86 264.64 66.86 264.64 67.05 265.58 67.05 265.58 67.16 266.52 67.16 266.52 56.12 266.53 56.12 266.53 66.27 267.47 66.27 267.47 65.97 268.41 65.97 268.41 65.72 269.35 65.72 269.35 65.47 270.3 65.47 270.3 65.38 271.24 65.38 271.24 56.12 271.24 56.12 271.24 65.38 272.18 65.38 273.12 65.38 273.12 65.09 274.07 65.09 274.07 56.12 274.07 56.12 274.07 64.85 275.01 64.85 275.01 64.49 275.95 64.49 275.95 56.12 275.95 56.12 275.95 64.33 276.89 64.33 276.89 56.12 276.89 56.12 276.89 64.79 277.84 64.79 277.84 56.12 277.84 56.12 277.84 64.49 278.78 64.49 278.78 64.49 279.72 64.49 279.72 56.12 279.72 56.12 279.72 64.2 280.66 64.2 280.66 56.12 280.67 56.12 280.67 64.2 281.61 64.2 281.61 56.12 281.61 56.12 281.61 63.9 282.55 63.9 282.55 56.12 282.55 56.12 282.55 63.9 283.49 63.9 283.49 64.2 284.43 64.2 284.43 64.49 285.38 64.49 285.38 56.12 285.38 56.12 285.38 64.49 286.32 64.49 286.32 56.12 286.32 56.12 286.32 64.2 287.26 64.2 287.26 63.9 288.21 63.9 288.21 56.12 288.21 56.12 288.21 63.9 289.15 63.9 289.15 63.61 290.09 63.61 290.09 63.61 291.03 63.61 291.03 56.12 291.03 56.12 291.03 63.31 291.98 63.31 292.92 63.31 292.92 63.31 293.86 63.31 293.86 56.12 293.86 56.12 293.86 63.61 294.8 63.61 294.8 56.12 294.8 56.12 294.8 63.9 295.75 63.9 295.75 56.12 295.75 56.12 295.75 63.9 296.69 63.9 296.69 63.61 297.63 63.61 297.63 56.12 297.63 56.12 297.63 63.61 298.57 63.61 298.57 63.31 299.52 63.31 299.52 63.47 300.46 63.47 300.46 63.61 301.4 63.61 301.4 56.12 301.4 56.12 301.4 63.31 302.35 63.31 302.35 63.02 303.29 63.02 303.29 63.31 304.23 63.31 305.17 63.31 306.12 63.31 306.12 63.61 307.06 63.61 307.06 56.12 307.06 56.12 307.06 64.2 308 64.2 308 64.49 308.94 64.49 309.89 64.49 309.89 64.2 310.83 64.2 310.83 62.14 310.83 62.14 310.83 64.2 311.77 64.2 311.77 64.2 312.71 64.2 312.71 56.12 312.72 56.12 312.72 64.2 313.66 64.2 313.66 64.49 314.6 64.49 314.6 64.2 315.54 64.2 316.48 64.2 316.48 63.9 317.43 63.9 318.37 63.9 318.37 63.61 319.31 63.61 319.31 63.31 320.25 63.31 320.25 63.61 321.2 63.61 322.14 63.61 323.08 63.61 323.08 56.12 323.08 56.12 323.08 63.9 324.02 63.9 324.02 56.12 324.02 56.12 324.02 63.61 324.97 63.61 324.97 63.9 325.91 63.9 326.85 63.9 326.85 63.61 327.8 63.61 327.8 63.31 328.74 63.31 329.68 63.31 329.68 63.02 330.62 63.02 330.62 56.12 330.62 56.12 330.62 62.72 331.57 62.72 331.57 63.02 332.51 63.02 333.45 63.02 333.45 62.72 334.39 62.72 335.34 62.72 335.34 62.42 336.28 62.42 336.28 56.12 336.28 56.12 336.28 62.42 337.22 62.42 337.22 62.13 338.16 62.13 339.11 62.13 340.05 62.13 340.05 62.23 340.99 62.23 340.99 62.13 341.94 62.13 341.94 56.12 341.94 56.12 341.94 62.42 342.88 62.42 342.88 56.12 342.88 56.12 342.88 62.42 343.82 62.42 343.82 56.12 343.82 56.12 343.82 62.42 344.76 62.42 344.76 56.12 344.76 56.12 344.76 62.72 345.7 62.72 345.7 63.02 346.65 63.02 347.59 63.02 347.59 56.12 347.59 56.12 347.59 62.72 348.53 62.72 348.53 56.12 348.53 56.12 348.53 62.72 349.48 62.72 349.48 56.12 349.48 56.12 349.48 62.42 350.42 62.42 350.42 56.12 350.42 56.12 350.42 62.42 351.36 62.42 351.36 56.12 351.36 56.12 351.36 62.42 352.3 62.42 353.25 62.42 353.25 56.12 353.25 56.12 353.25 62.13 354.19 62.13 354.19 56.12 354.19 56.12 354.19 62.13 355.13 62.13 355.13 56.12 355.13 56.12 355.13 61.83 356.07 61.83 356.07 56.12 356.07 56.12 356.07 61.83 357.02 61.83 357.02 56.12 357.02 56.12 357.02 61.83 357.96 61.83 357.96 56.12 357.96 56.12 357.96 61.54 358.9 61.54 358.9 56.12 358.9 56.12 358.9 61.83 359.84 61.83 359.84 56.12 359.84 56.12 359.84 61.54 360.79 61.54 360.79 56.12 360.79 56.12 360.79 61.24 361.73 61.24 361.73 56.12 361.73 56.12 361.73 61.54 362.67 61.54 362.67 56.12 362.67 56.12 362.67 61.24 363.62 61.24 363.62 56.12 363.62 56.12 363.62 61.24 364.56 61.24 364.56 56.12 364.56 56.12 364.56 61.54 365.5 61.54 365.5 56.12 365.5 56.12 365.5 60.95 366.44 60.95 366.44 56.12 366.44 56.12 366.44 61.24 367.38 61.24 367.38 56.12 367.38 56.12 367.38 60.95 368.33 60.95 368.33 56.12 368.33 56.12 368.33 60.95 369.27 60.95 369.27 56.12 369.27 56.12 369.27 60.95 370.21 60.95 370.21 56.12 370.21 56.12 370.21 60.65 371.16 60.65 371.16 56.12 371.16 56.12 371.16 60.65 372.1 60.65 372.1 56.12 372.1 56.12 372.1 60.65 373.04 60.65 373.04 56.12 373.04 56.12 373.04 60.65 373.98 60.65 373.98 56.12 373.98 56.12 373.98 60.65 374.93 60.65 374.93 56.12 374.93 56.12 374.93 60.95 375.87 60.95 376.81 60.95 376.81 56.12 376.81 56.12 376.81 60.95 377.75 60.95 377.75 56.12 377.75 56.12 377.75 60.65 378.7 60.65 378.7 56.12 378.7 56.12 378.7 60.71 379.64 60.71 379.64 56.12 379.64 56.12 379.64 60.95 380.58 60.95 380.58 56.12 380.58 56.12 380.58 61.24 381.52 61.24 381.52 61.54 382.47 61.54 382.47 56.12 382.47 56.12 382.47 61.83 383.41 61.83 383.41 56.12 383.41 56.12 383.41 62.13 384.35 62.13 384.35 56.12 384.35 56.12 384.35 62.13 385.3 62.13 385.3 56.12 385.3 56.12 385.3 62.42 386.24 62.42 386.24 56.12 386.24 56.12 386.24 62.13 387.18 62.13 387.18 62.42 388.12 62.42 388.12 62.13 389.06 62.13 390.01 62.13 390.95 62.13 390.95 56.12 390.95 56.12 390.95 61.83 391.89 61.83 391.89 56.12 391.89 56.12 391.89 61.54 392.84 61.54 393.78 61.54 394.72 61.54 394.72 56.12 394.72 56.12 394.72 61.54 395.66 61.54 396.61 61.54 397.55 61.54 397.55 56.12 397.55 56.12 397.55 61.31 398.49 61.31 398.49 56.12 398.49 56.12 398.49 61.24 399.43 61.24 400.38 61.24 400.38 56.12 400.38 56.12 400.38 61.24 401.32 61.24 401.32 56.12 401.32 56.12 401.32 61.24 402.26 61.24 403.2 61.24 403.2 56.12 403.2 56.12 403.2 60.95 404.15 60.95 405.09 60.95 405.09 60.65 406.03 60.65 406.98 60.65 407.92 60.65 407.92 56.58"/><text class="cls-2" transform="translate(44.57 59.14) scale(0.99 0.9)">Lands<tspan class="cls-3" x="76.67" y="0">c</tspan><tspan class="cls-4" x="90.45" y="0">ape Data Commons</tspan></text></svg>